<?xml version="1.0" encoding="UTF-8"?>
<svg width="672px" height="470px" viewBox="0 0 672 470" version="1.1" xmlns="http://www.w3.org/2000/svg" xmlns:xlink="http://www.w3.org/1999/xlink">
    <title>编组</title>
    <defs>
        <linearGradient x1="35.8344653%" y1="45.5110042%" x2="43.2008207%" y2="53.6321811%" id="linearGradient-1">
            <stop stop-color="#6885EF" stop-opacity="0.43" offset="0%"></stop>
            <stop stop-color="#F9AEC5" stop-opacity="0.3" offset="100%"></stop>
        </linearGradient>
        <ellipse id="path-2" cx="37.458" cy="34.673" rx="14.8779" ry="35.5618"></ellipse>
        <ellipse id="path-4" cx="31.597" cy="46.005" rx="17.7673" ry="42.4682"></ellipse>
        <linearGradient x1="0%" y1="73.3417634%" x2="100%" y2="73.3417634%" id="linearGradient-6">
            <stop stop-color="#6785EF" offset="0%"></stop>
            <stop stop-color="#B2C3FF" offset="49.7238%"></stop>
            <stop stop-color="#6785EF" offset="100%"></stop>
        </linearGradient>
        <linearGradient x1="0%" y1="73.3333333%" x2="100%" y2="73.3333333%" id="linearGradient-7">
            <stop stop-color="#6785EF" offset="0%"></stop>
            <stop stop-color="#B2C3FF" offset="49.7238%"></stop>
            <stop stop-color="#6785EF" offset="100%"></stop>
        </linearGradient>
        <linearGradient x1="0%" y1="73.3302678%" x2="100%" y2="73.3302678%" id="linearGradient-8">
            <stop stop-color="#6785EF" offset="0%"></stop>
            <stop stop-color="#B2C3FF" offset="49.7238%"></stop>
            <stop stop-color="#6785EF" offset="100%"></stop>
        </linearGradient>
        <linearGradient x1="0%" y1="73.3234181%" x2="100%" y2="73.3234181%" id="linearGradient-9">
            <stop stop-color="#6785EF" offset="0%"></stop>
            <stop stop-color="#B2C3FF" offset="49.7238%"></stop>
            <stop stop-color="#6785EF" offset="100%"></stop>
        </linearGradient>
        <linearGradient x1="0%" y1="73.3369389%" x2="100%" y2="73.3369389%" id="linearGradient-10">
            <stop stop-color="#6785EF" offset="0%"></stop>
            <stop stop-color="#B2C3FF" offset="49.7238%"></stop>
            <stop stop-color="#6785EF" offset="100%"></stop>
        </linearGradient>
        <linearGradient x1="0%" y1="73.3338648%" x2="100%" y2="73.3338648%" id="linearGradient-11">
            <stop stop-color="#6785EF" offset="0%"></stop>
            <stop stop-color="#B2C3FF" offset="49.7238%"></stop>
            <stop stop-color="#6785EF" offset="100%"></stop>
        </linearGradient>
    </defs>
    <g id="Page-1" stroke="none" stroke-width="1" fill="none" fill-rule="evenodd">
        <g id="Send-Payments" transform="translate(-80.000000, -78.000000)">
            <g id="编组" transform="translate(80.000000, 79.000000)">
                <g id="bg" transform="translate(105.000000, 183.000000)" fill="url(#linearGradient-1)" fill-opacity="0.5" fill-rule="nonzero">
                    <path d="M397.324,17.809 C329.324,2.63 143.928,-19.759 43.538,36.788 C-7.643,65.616 -18.86,101.883 37.969,130.379 C98.201,160.581 237.933,166.162 391.074,121.163 C562.128,70.9 450.496,29.677 397.324,17.809 Z"></path>
                </g>
                <g id="shadows" transform="translate(0.000000, 153.000000)" fill-rule="nonzero">
                    <ellipse id="Oval" fill="#F3F3F3" cx="89.476" cy="299.411" rx="89.4761" ry="16.5469"></ellipse>
                    <ellipse id="Oval" fill-opacity="0.2" fill="#A7A7A7" cx="553.54" cy="135.951" rx="52.6324" ry="10.5265"></ellipse>
                    <ellipse id="Oval" fill-opacity="0.14" fill="#A7A7A7" cx="500.907" cy="7.24" rx="37.3212" ry="7.17715"></ellipse>
                    <ellipse id="Oval" fill-opacity="0.14" fill="#A7A7A7" cx="356.407" cy="32.6" rx="44.9768" ry="8.61258"></ellipse>
                </g>
                <g id="plants" transform="translate(164.000000, 128.000000)">
                    <g id="plant-4" transform="translate(423.000000, 0.000000)" fill="#6885EF" fill-rule="nonzero">
                        <path d="M15.032,24.158 C16.727,30.493 15.511,33.074 16.582,34.985 C16.985,35.704 16.578,37.316 15.768,37.162 C14.113,36.849 12.686,35.6 11.398,33.693 C9.44,30.793 10.013,30.228 8.461,24.386 C6.91,18.544 1.696,14.851 0.069,14.539 C7.145,13.492 13.336,17.823 15.032,24.158 Z" id="Shape" fill-opacity="0.5"></path>
                        <path d="M15.484,15.784 C19.878,6.818 27.196,2.8 30.654,0.464 C30.799,2.35 30.376,3.964 29.105,7.768 C27.834,11.571 25.215,16.157 20.888,18.888 C25.035,22.912 17.323,36.188 16.595,37.544 C16.59,37.579 16.58,37.607 16.565,37.628 C16.522,37.686 16.536,37.654 16.595,37.544 C16.747,36.316 10.144,26.683 15.484,15.784 Z" id="Shape"></path>
                    </g>
                    <g id="plant-3" transform="translate(182.000000, 19.000000)" fill-rule="nonzero">
                        <polygon id="Shape" fill="#F9759C" points="21.499 20.844 25.693 26.403 24.02 27.336 19.94 22.124 11.623 23.307 19.241 21.198 15.161 15.986 6.518 14.964 14.348 14.712 8.544 5.442 15.907 13.431 18.973 5.879 16.72 14.705 20.8 19.917 25.752 13.289"></polygon>
                        <ellipse id="Oval" fill="#F9AEC5" transform="translate(26.580000, 13.403000) scale(-1, 1) rotate(18.128726) translate(-26.580000, -13.403000) " cx="26.58" cy="13.403" rx="3.38407054" ry="3.29434053"></ellipse>
                        <ellipse id="Oval" fill="#F9AEC5" transform="translate(19.103000, 5.066000) scale(-1, 1) rotate(18.128726) translate(-19.103000, -5.066000) " cx="19.103" cy="5.066" rx="3.38407054" ry="3.29434053"></ellipse>
                        <ellipse id="Oval" fill="#F9AEC5" transform="translate(7.958000, 4.864000) scale(-1, 1) rotate(18.128726) translate(-7.958000, -4.864000) " cx="7.958" cy="4.864" rx="3.38407054" ry="3.29434053"></ellipse>
                        <ellipse id="Oval" fill="#F9AEC5" transform="translate(5.202000, 15.780000) scale(-1, 1) rotate(18.128726) translate(-5.202000, -15.780000) " cx="5.202" cy="15.78" rx="3.38407054" ry="3.29434053"></ellipse>
                        <ellipse id="Oval" fill="#F9AEC5" transform="translate(10.307000, 24.123000) scale(-1, 1) rotate(18.128726) translate(-10.307000, -24.123000) " cx="10.307" cy="24.123" rx="3.38407054" ry="3.29434053"></ellipse>
                    </g>
                    <g id="plant-2" transform="translate(425.000000, 76.000000)">
                        <g id="Clipped" transform="translate(8.000000, 25.000000)">
                            <mask id="mask-3" fill="white">
                                <use xlink:href="#path-2"></use>
                            </mask>
                            <g id="Oval" transform="translate(37.458000, 34.673000) rotate(51.195400) translate(-37.458000, -34.673000) "></g>
                            <ellipse id="Oval" fill="#F9AEC5" fill-rule="nonzero" mask="url(#mask-3)" transform="translate(45.036000, 43.879000) rotate(51.195400) translate(-45.036000, -43.879000) " cx="45.036" cy="43.879" rx="14.8779" ry="35.5618"></ellipse>
                        </g>
                        <g id="Clipped">
                            <mask id="mask-5" fill="white">
                                <use xlink:href="#path-4"></use>
                            </mask>
                            <g id="Oval" transform="translate(31.597000, 46.005000) rotate(20.640900) translate(-31.597000, -46.005000) "></g>
                            <ellipse id="Oval" fill="#F9759C" fill-rule="nonzero" mask="url(#mask-5)" transform="translate(43.763000, 50.588000) rotate(20.640900) translate(-43.763000, -50.588000) " cx="43.763" cy="50.588" rx="17.7673" ry="42.4682"></ellipse>
                        </g>
                    </g>
                    <g id="plant-1" transform="translate(0.000000, 211.000000)" fill-rule="nonzero">
                        <path d="M30.406,39.872 C16.294,51.562 9.817,77.608 8,89 C16.042,78.473 41.777,58.639 41.777,58.639 C41.777,58.639 69.294,35.423 77.885,23.034 C70.661,31.591 48.045,25.26 30.406,39.872 Z" id="Shape" fill="#7F9AF8"></path>
                        <path d="M4.633,31.228 C-3.753,47.5 3.336,76.568 8,89 C10.534,75.686 27.763,47.588 27.763,47.588 C27.763,47.588 43.869,15.418 45.912,0 C43.114,11.019 15.115,10.889 4.633,31.228 Z" id="Shape" fill="#6785EF"></path>
                        <path d="M43.234,53.211 C26.939,57.957 13.04,79.19 8,89 C18.436,82.699 47.978,75.612 47.978,75.612 C47.978,75.612 79.879,65.964 91.368,58.17 C82.261,62.993 63.603,47.278 43.234,53.211 Z" id="Shape" fill-opacity="0.6" fill="#6785EF"></path>
                    </g>
                </g>
                <g id="lines" transform="translate(218.000000, 0.000000)" stroke="#B2C3FF" stroke-dasharray="9.289999999999999" stroke-linecap="round" stroke-linejoin="round" stroke-width="2.78633">
                    <path d="M166.5,156.5 C166.5,121.405 162.398,77.187 122.5,58.5 C82.602,39.813 32,50.5 12,96" id="Shape"></path>
                    <path d="M305,136 C305,83.354 278.54,26.61 206,6.5 C133.46,-13.6102 22.5,21.5 0.5,92.5" id="Shape"></path>
                    <path d="M364,237 C364,10.8555 55.5,12.5 24.5,99.5" id="Shape"></path>
                </g>
                <g id="mobile" transform="translate(125.000000, 81.000000)" fill-rule="nonzero">
                    <path d="M47.763,9.97 C48.922,4.636 54.28,1.332 59.567,2.692 L145.631,24.822 C150.753,26.139 153.853,31.342 152.573,36.474 L107.221,218.335 C105.932,223.504 100.69,226.643 95.525,225.338 L14.912,204.981 C9.879,203.71 6.76,198.677 7.862,193.605 L47.763,9.97 Z" id="Shape" fill="#F3F3F3"></path>
                    <rect id="Rectangle-path" stroke="#F3F3F3" stroke-width="0.875084" fill="#FFFFFF" transform="translate(76.039359, 111.919934) rotate(13.963800) translate(-76.039359, -111.919934) " x="23.3008588" y="10.6114343" width="105.477" height="202.617" rx="9.18838"></rect>
                    <path d="M42.318,27.166 L47.787,28.526 C50.601,29.226 52.315,32.074 51.615,34.888 L42.833,70.207 C42.133,73.021 39.285,74.735 36.471,74.035 L31.002,72.676 L42.318,27.166 Z" id="Shape" fill-opacity="0.48" fill="#BBCAFF"></path>
                    <path d="M134.211,98.339 L128.741,96.979 C125.927,96.279 124.213,93.431 124.913,90.617 L133.695,55.298 C134.395,52.484 137.243,50.77 140.057,51.47 L145.527,52.83 L134.211,98.339 Z" id="Shape" fill-opacity="0.48" fill="#BBCAFF"></path>
                    <path d="M120.652,93.872 C119.952,96.686 117.103,98.4 114.289,97.7 L48.902,81.441 C46.088,80.741 44.374,77.893 45.074,75.079 L55.877,31.633 C56.576,28.819 59.425,27.105 62.239,27.805 L127.626,44.064 C130.44,44.764 132.154,47.612 131.455,50.426 L120.652,93.872 Z" id="Shape" fill="#334891"></path>
                    <path d="M75.5072549,69.0945902 L102.289095,69.0945902 C103.09542,69.0945902 103.749075,69.7482456 103.749075,70.5545702 C103.749075,71.3608949 103.09542,72.0145502 102.289095,72.0145502 L75.5072549,72.0145502 C74.7009302,72.0145502 74.0472749,71.3608949 74.0472749,70.5545702 C74.0472749,69.7482456 74.7009302,69.0945902 75.5072549,69.0945902 Z" id="Rectangle-path" fill="#D2D9F1" transform="translate(88.898175, 70.554570) rotate(14.310900) translate(-88.898175, -70.554570) "></path>
                    <path d="M65.0094877,75.1571779 L109.693728,75.1571779 C110.500052,75.1571779 111.153708,75.8108332 111.153708,76.6171579 C111.153708,77.4234826 110.500052,78.0771379 109.693728,78.0771379 L65.0094877,78.0771379 C64.203163,78.0771379 63.5495077,77.4234826 63.5495077,76.6171579 C63.5495077,75.8108332 64.203163,75.1571779 65.0094877,75.1571779 Z" id="Rectangle-path" fill="#D2D9F1" transform="translate(87.351608, 76.617158) rotate(14.310900) translate(-87.351608, -76.617158) "></path>
                    <polygon id="Rectangle-path" fill="#F3F3F3" transform="translate(77.835717, 102.957449) rotate(13.963800) translate(-77.835717, -102.957449) " points="30.9405165 102.457449 124.730917 102.457449 124.730917 103.294863 30.9405165 103.294863"></polygon>
                    <polygon id="Rectangle-path" fill="#F3F3F3" transform="translate(72.581717, 124.086449) rotate(13.963800) translate(-72.581717, -124.086449) " points="25.6865165 123.586449 119.476917 123.586449 119.476917 124.423863 25.6865165 124.423863"></polygon>
                    <polygon id="Rectangle-path" fill="#F3F3F3" transform="translate(67.327717, 145.216449) rotate(13.963800) translate(-67.327717, -145.216449) " points="20.4325165 144.716449 114.222917 144.716449 114.222917 145.553863 20.4325165 145.553863"></polygon>
                    <path d="M33.5001816,158.300963 L89.6801816,158.300963 C96.1550575,158.300963 101.403982,163.549887 101.403982,170.024763 C101.403982,176.499639 96.1550575,181.748563 89.6801816,181.748563 L33.5001816,181.748563 C27.0253056,181.748563 21.7763816,176.499639 21.7763816,170.024763 C21.7763816,163.549887 27.0253056,158.300963 33.5001816,158.300963 Z" id="Rectangle-path" fill="#F9759C" transform="translate(61.590182, 170.024763) rotate(13.963800) translate(-61.590182, -170.024763) "></path>
                    <circle id="Oval" fill="#B2C3FF" transform="translate(41.197000, 104.550000) rotate(13.963800) translate(-41.197000, -104.550000) " cx="41.197" cy="104.55" r="6.69931"></circle>
                    <circle id="Oval" fill="#B2C3FF" transform="translate(35.943000, 125.679000) rotate(13.963800) translate(-35.943000, -125.679000) " cx="35.943" cy="125.679" r="6.69931"></circle>
                    <polygon id="Rectangle-path" fill="#E2E2E2" transform="translate(82.638561, 111.403133) rotate(13.963800) translate(-82.638561, -111.403133) " points="51.6542111 109.728303 113.622911 109.728303 113.622911 113.077963 51.6542111 113.077963"></polygon>
                    <polygon id="Rectangle-path" fill="#E2E2E2" transform="translate(66.597834, 115.180800) rotate(13.963800) translate(-66.597834, -115.180800) " points="50.2682841 113.50597 82.9273841 113.50597 82.9273841 116.85563 50.2682841 116.85563"></polygon>
                    <polygon id="Rectangle-path" fill="#E2E2E2" transform="translate(77.384561, 132.532133) rotate(13.963800) translate(-77.384561, -132.532133) " points="46.4002111 130.857303 108.368911 130.857303 108.368911 134.206963 46.4002111 134.206963"></polygon>
                    <polygon id="Rectangle-path" fill="#E2E2E2" transform="translate(61.343834, 136.309800) rotate(13.963800) translate(-61.343834, -136.309800) " points="45.0142841 134.63497 77.6733841 134.63497 77.6733841 137.98463 45.0142841 137.98463"></polygon>
                    <polygon id="Rectangle-path" fill="#E2E2E2" transform="translate(54.310834, 195.827800) rotate(13.963800) translate(-54.310834, -195.827800) " points="37.9812841 194.15297 70.6403841 194.15297 70.6403841 197.50263 37.9812841 197.50263"></polygon>
                    <path d="M72.087,173.113 C72.397,172.926 72.498,172.523 72.311,172.212 L69.265,167.151 C69.078,166.841 68.675,166.74 68.364,166.927 C68.054,167.114 67.954,167.517 68.14,167.828 L70.848,172.327 L66.349,175.034 C66.038,175.221 65.938,175.624 66.125,175.934 C66.312,176.245 66.715,176.345 67.025,176.158 L72.087,173.113 Z M52.086,168.338 L71.59,173.188 L71.907,171.914 L52.403,167.064 L52.086,168.338 Z" id="Shape" fill="#FFFFFF"></path>
                </g>
                <g id="character" transform="translate(44.000000, 213.000000)" fill-rule="nonzero">
                    <path d="M16.672,124.808 C16.672,145.032 20.774,155.271 17.898,174.449 C15.289,191.845 5.641,229.77 5.641,229.77 C6.867,230.996 8.705,230.383 11.769,230.383 C14.834,230.383 16.672,230.996 17.898,230.383 L33.832,174.449 L36.896,151.16 L52.703,172.512 L55.265,228.379 C55.265,228.379 55.895,229.605 59.572,229.605 C63.249,229.605 65.087,228.379 65.087,228.379 C65.087,228.379 70.607,176.637 69.994,168.67 C69.382,160.703 54.056,125.624 54.056,122.56 L54.056,111.938 L19.736,111.938 C19.736,111.938 16.672,120.106 16.672,124.808 Z" id="Shape" fill="#3C56C6"></path>
                    <path d="M4.525,135.949 C3.913,133.498 3.912,129.004 4.525,126.757 C6.16,125.531 9.428,123.447 9.428,124.918 C9.428,126.757 11.267,129.208 13.105,133.498 C14.576,136.93 12.492,139.626 9.428,140.239 C6.364,140.852 5.138,138.401 4.525,135.949 Z" id="Shape" fill="#FCD8E3"></path>
                    <path d="M32.606,39.622 C32.606,40.602 31.789,44.116 31.38,45.75 C32.198,46.771 34.567,48.814 37.509,48.814 C40.451,48.814 42.82,47.18 43.637,46.363 C43.229,44.116 42.779,39.622 44.25,39.622 C45.721,39.622 48.54,37.17 49.766,35.944 C50.379,32.267 48.54,23.075 47.927,14.495 C47.315,5.915 36.283,2.851 31.38,6.528 C26.478,10.205 24.639,17.559 24.639,24.3 C24.639,31.042 32.606,38.396 32.606,39.622 Z" id="Shape" fill="#FCD8E3"></path>
                    <path d="M133.223,31.685 C131.648,34.285 127.567,38.515 125.129,39.896 C124.458,39.797 121.578,45.781 121.578,45.781 L116.063,40.878 C116.063,40.878 119.1,37.57 119.406,37.266 C120.976,35.709 121.511,32.062 123.617,26.858 C124.275,25.232 127.134,20.614 128.32,20.041 C130.172,19.146 129.425,21.222 131.997,24.944 C134.569,28.666 134.797,29.085 133.223,31.685 Z" id="Shape" fill="#FCD8E3"></path>
                    <path d="M53.984,116.796 C53.984,116.796 22.801,119.137 19.736,114.234 L19.736,95.662 L19.736,77.618 L13.105,94.275 L10.041,125.531 C8.407,126.961 4.525,127.369 3.912,125.531 C3.078,123.026 0.235,92.437 0.848,88.76 C1.461,85.083 15.557,56.892 15.557,56.892 L27.703,49.427 L30.155,44.524 C30.972,45.137 32.974,45.137 36.896,45.137 C40.818,45.137 44.046,45.137 44.863,44.524 L46.089,49.427 L58.959,53.104 C58.959,53.104 81.021,67.813 83.473,67.813 C85.924,67.813 110.438,45.75 110.438,45.75 L115.954,40.234 L122.695,45.75 L118.405,53.104 C118.405,53.104 88.988,86.811 85.924,86.811 C82.86,86.811 56.507,75.78 56.507,75.78 C56.099,75.78 55.281,79.089 55.281,82.521 C55.281,92.346 53.984,116.796 53.984,116.796 Z" id="Shape" fill="#B2C3FF"></path>
                    <path d="M46.089,49.427 C43.147,51.388 32.198,50.653 27.09,50.04 C27.908,47.997 29.664,44.034 30.155,44.524 C30.768,45.137 34.445,45.137 37.509,45.137 C39.96,45.137 43.433,44.729 44.863,44.524 L46.089,49.427 Z" id="Shape" fill="#B2C3FF"></path>
                    <path d="M52.83,238.185 C52.83,237.695 53.851,231.444 54.669,228.379 L65.7,228.379 C67.722,231.413 74.116,234.313 77.344,235.121 C79.305,235.611 79.387,238.185 79.183,239.411 C74.484,240.023 69.867,240.023 64.474,240.023 C57.733,240.023 52.83,238.798 52.83,238.185 Z" id="Shape" fill="#2B3A7C"></path>
                    <path d="M3.189,237.682 L5.641,228.49 L17.898,229.102 C19.123,231.554 28.316,234.005 30.767,235.844 C32.729,237.315 29.95,239.725 28.316,240.747 L12.995,240.747 C10.053,240.747 5.232,238.704 3.189,237.682 Z" id="Shape" fill="#2B3A7C"></path>
                    <path d="M23.413,24.913 C23.903,27.365 29.337,34.515 31.993,37.783 L40.573,37.17 C40.777,34.106 41.186,27.365 41.186,24.913 C41.186,22.462 44.863,19.398 46.702,18.172 C47.723,17.355 49.888,15.353 50.379,13.882 C50.992,12.043 49.153,4.689 46.702,3.463 C44.741,2.483 43.025,3.872 42.412,4.689 C42.003,3.872 40.328,1.87 36.896,0.399 C32.606,-1.439 29.542,3.463 24.639,7.141 C19.736,10.818 22.8,21.849 23.413,24.913 Z" id="Shape" fill="#3049A0"></path>
                </g>
                <g id="coins" transform="translate(363.000000, 135.000000)" fill-rule="nonzero">
                    <path d="M0.106,45.124 L38.384,45.124 L38.384,51.504 C38.384,51.504 36.064,53.823 19.245,53.823 C2.426,53.823 0.106,51.504 0.106,51.504 L0.106,45.124 Z" id="Shape" fill="url(#linearGradient-6)"></path>
                    <ellipse id="Oval" fill="#6885EF" cx="19.245" cy="45.124" rx="19.1391" ry="2.89986"></ellipse>
                    <path d="M0.106,38.188 L38.384,38.188 L38.384,44.568 C38.384,44.568 36.064,46.888 19.245,46.888 C2.426,46.888 0.106,44.568 0.106,44.568 L0.106,38.188 Z" id="Shape" fill="url(#linearGradient-7)"></path>
                    <ellipse id="Oval" fill="#6885EF" cx="19.245" cy="38.188" rx="19.1391" ry="2.89986"></ellipse>
                    <path d="M0.106,31.49 L38.384,31.49 L38.384,37.869 C38.384,37.869 36.064,40.189 19.245,40.189 C2.426,40.189 0.106,37.869 0.106,37.869 L0.106,31.49 Z" id="Shape" fill="url(#linearGradient-8)"></path>
                    <ellipse id="Oval" fill="#6885EF" cx="19.245" cy="31.49" rx="19.1391" ry="2.89986"></ellipse>
                    <path d="M2.977,24.791 L41.255,24.791 L41.255,31.171 C41.255,31.171 38.935,33.49 22.116,33.49 C5.297,33.49 2.977,31.171 2.977,31.171 L2.977,24.791 Z" id="Shape" fill="url(#linearGradient-6)"></path>
                    <ellipse id="Oval" fill="#6785EF" cx="22.116" cy="24.791" rx="19.1391" ry="2.89986"></ellipse>
                    <path d="M143.116,20.59 L175.658,20.59 L175.658,26.013 C175.658,26.013 173.686,27.986 159.387,27.986 C145.088,27.986 143.116,26.013 143.116,26.013 L143.116,20.59 Z" id="Shape" fill="url(#linearGradient-9)"></path>
                    <ellipse id="Oval" fill="#6885EF" cx="159.387" cy="20.59" rx="16.2713" ry="2.46534"></ellipse>
                    <path d="M143.116,14.693 L175.658,14.693 L175.658,20.117 C175.658,20.117 173.686,22.089 159.387,22.089 C145.088,22.089 143.116,20.117 143.116,20.117 L143.116,14.693 Z" id="Shape" fill="url(#linearGradient-10)"></path>
                    <ellipse id="Oval" fill="#6885EF" cx="159.387" cy="14.693" rx="16.2713" ry="2.46534"></ellipse>
                    <path d="M143.116,8.998 L175.658,8.998 L175.658,14.422 C175.658,14.422 173.686,16.394 159.387,16.394 C145.088,16.394 143.116,14.422 143.116,14.422 L143.116,8.998 Z" id="Shape" fill="url(#linearGradient-10)"></path>
                    <ellipse id="Oval" fill="#6885EF" cx="159.387" cy="8.998" rx="16.2713" ry="2.46534"></ellipse>
                    <path d="M145.557,3.303 L178.099,3.303 L178.099,8.727 C178.099,8.727 176.127,10.699 161.828,10.699 C147.529,10.699 145.557,8.727 145.557,8.727 L145.557,3.303 Z" id="Shape" fill="url(#linearGradient-10)"></path>
                    <ellipse id="Oval" fill="#6785EF" cx="161.828" cy="3.303" rx="16.2713" ry="2.46534"></ellipse>
                    <path d="M187.669,144.475 L242.861,144.475 L242.861,153.674 C242.861,153.674 239.516,157.019 215.265,157.019 C191.014,157.019 187.669,153.674 187.669,153.674 L187.669,144.475 Z" id="Shape" fill="url(#linearGradient-11)"></path>
                    <ellipse id="Oval" fill="#6885EF" cx="215.265" cy="144.475" rx="27.5959" ry="4.18119"></ellipse>
                    <path d="M187.669,134.475 L242.861,134.475 L242.861,143.674 C242.861,143.674 239.516,147.019 215.265,147.019 C191.014,147.019 187.669,143.674 187.669,143.674 L187.669,134.475 Z" id="Shape" fill="url(#linearGradient-11)"></path>
                    <ellipse id="Oval" fill="#6885EF" cx="215.265" cy="134.475" rx="27.5959" ry="4.18119"></ellipse>
                    <path d="M187.669,124.816 L242.861,124.816 L242.861,134.015 C242.861,134.015 239.516,137.36 215.265,137.36 C191.014,137.36 187.669,134.015 187.669,134.015 L187.669,124.816 Z" id="Shape" fill="url(#linearGradient-11)"></path>
                    <ellipse id="Oval" fill="#6885EF" cx="215.265" cy="124.816" rx="27.5959" ry="4.18119"></ellipse>
                    <path d="M187.669,115.158 L242.861,115.158 L242.861,124.357 C242.861,124.357 239.516,127.702 215.265,127.702 C191.014,127.702 187.669,124.357 187.669,124.357 L187.669,115.158 Z" id="Shape" fill="url(#linearGradient-11)"></path>
                    <ellipse id="Oval" fill="#6885EF" cx="215.265" cy="115.158" rx="27.5959" ry="4.18119"></ellipse>
                    <path d="M191.808,105.499 L247,105.499 L247,114.698 C247,114.698 243.655,118.043 219.404,118.043 C195.153,118.043 191.808,114.698 191.808,114.698 L191.808,105.499 Z" id="Shape" fill="url(#linearGradient-11)"></path>
                    <ellipse id="Oval" fill="#6785EF" cx="219.404" cy="105.499" rx="27.5959" ry="4.18119"></ellipse>
                </g>
            </g>
        </g>
    </g>
</svg>